<svg xmlns="http://www.w3.org/2000/svg" viewBox="0 0 64 64">
    <path d="M 4.0,40.5 L 4.5,41.1 L 5.0,41.8 L 5.5,42.4 L 5.9,42.8 L 6.4,43.2 L 6.9,43.4 L 7.4,43.4 L 7.9,43.2 L 8.4,42.8 L 8.8,42.3 L 9.3,41.6 L 9.8,40.8 L 10.3,39.9 L 10.8,39.1 L 11.3,38.2 L 11.8,37.5 L 12.2,36.9 L 12.7,36.5 L 13.2,36.4 L 13.7,36.5 L 14.2,36.9 L 14.7,37.5 L 15.2,38.4 L 15.6,39.6 L 16.1,40.8 L 16.6,42.2 L 17.1,43.5 L 17.6,44.8 L 18.1,45.9 L 18.5,46.8 L 19.0,47.3 L 19.5,47.4 L 20.0,47.1 L 20.5,46.3 L 21.0,45.0 L 21.5,43.1 L 21.9,40.8 L 22.4,38.1 L 22.9,35.0 L 23.4,31.6 L 23.9,28.1 L 24.4,24.6 L 24.8,21.2 L 25.3,17.9 L 25.8,15.0 L 26.3,12.5 L 26.8,10.6 L 27.3,9.3 L 27.8,8.6 L 28.2,8.6 L 28.7,9.3 L 29.2,10.6 L 29.7,12.5 L 30.2,15.0 L 30.7,17.9 L 31.2,21.2 L 31.6,24.6 L 32.1,28.1 L 32.6,31.6 L 33.1,35.0 L 33.6,38.1 L 34.1,40.8 L 34.5,43.1 L 35.0,45.0 L 35.5,46.3 L 36.0,47.1 L 36.5,47.4 L 37.0,47.3 L 37.5,46.8 L 37.9,45.9 L 38.4,44.8 L 38.9,43.5 L 39.4,42.2 L 39.9,40.8 L 40.4,39.6 L 40.8,38.4 L 41.3,37.5 L 41.8,36.9 L 42.3,36.5 L 42.8,36.4 L 43.3,36.5 L 43.8,36.9 L 44.2,37.5 L 44.7,38.2 L 45.2,39.1 L 45.7,39.9 L 46.2,40.8 L 46.7,41.6 L 47.2,42.3 L 47.6,42.8 L 48.1,43.2 L 48.6,43.4 L 49.1,43.4 L 49.6,43.2 L 50.1,42.8 L 50.5,42.4 L 51.0,41.8 L 51.5,41.1 L 52.0,40.5" 
        fill="none" 
        stroke="#0ed65d" 
        stroke-width="6" 
        stroke-linecap="round" 
        stroke-linejoin="round"/>
    <path d="M 8.0,44.5 L 8.5,45.1 L 9.0,45.8 L 9.5,46.4 L 9.9,46.8 L 10.4,47.2 L 10.9,47.4 L 11.4,47.4 L 11.9,47.2 L 12.4,46.8 L 12.8,46.3 L 13.3,45.6 L 13.8,44.8 L 14.3,43.9 L 14.8,43.1 L 15.3,42.2 L 15.8,41.5 L 16.2,40.9 L 16.7,40.5 L 17.2,40.4 L 17.7,40.5 L 18.2,40.9 L 18.7,41.5 L 19.2,42.4 L 19.6,43.6 L 20.1,44.8 L 20.6,46.2 L 21.1,47.5 L 21.6,48.8 L 22.1,49.9 L 22.5,50.8 L 23.0,51.3 L 23.5,51.4 L 24.0,51.1 L 24.5,50.3 L 25.0,49.0 L 25.5,47.1 L 25.9,44.8 L 26.4,42.1 L 26.9,39.0 L 27.4,35.6 L 27.9,32.1 L 28.4,28.6 L 28.8,25.2 L 29.3,21.9 L 29.8,19.0 L 30.3,16.5 L 30.8,14.6 L 31.3,13.3 L 31.8,12.6 L 32.2,12.6 L 32.7,13.3 L 33.2,14.6 L 33.7,16.5 L 34.2,19.0 L 34.7,21.9 L 35.2,25.2 L 35.6,28.6 L 36.1,32.1 L 36.6,35.6 L 37.1,39.0 L 37.6,42.1 L 38.1,44.8 L 38.5,47.1 L 39.0,49.0 L 39.5,50.3 L 40.0,51.1 L 40.5,51.4 L 41.0,51.3 L 41.5,50.8 L 41.9,49.9 L 42.4,48.8 L 42.9,47.5 L 43.4,46.2 L 43.9,44.8 L 44.4,43.6 L 44.8,42.4 L 45.3,41.5 L 45.8,40.9 L 46.3,40.5 L 46.8,40.4 L 47.3,40.5 L 47.8,40.9 L 48.2,41.5 L 48.7,42.2 L 49.2,43.1 L 49.7,43.9 L 50.2,44.8 L 50.7,45.6 L 51.2,46.3 L 51.6,46.8 L 52.1,47.2 L 52.6,47.4 L 53.1,47.4 L 53.6,47.2 L 54.1,46.8 L 54.5,46.4 L 55.0,45.8 L 55.5,45.1 L 56.0,44.5" 
        fill="none" 
        stroke="#006eb3" 
        stroke-width="6" 
        stroke-linecap="round" 
        stroke-linejoin="round"/>
    <path d="M 12.0,48.5 L 12.5,49.1 L 13.0,49.8 L 13.5,50.4 L 13.9,50.8 L 14.4,51.2 L 14.9,51.4 L 15.4,51.4 L 15.9,51.2 L 16.4,50.8 L 16.8,50.3 L 17.3,49.6 L 17.8,48.8 L 18.3,47.9 L 18.8,47.1 L 19.3,46.2 L 19.8,45.5 L 20.2,44.9 L 20.7,44.5 L 21.2,44.4 L 21.7,44.5 L 22.2,44.9 L 22.7,45.5 L 23.2,46.4 L 23.6,47.6 L 24.1,48.8 L 24.6,50.2 L 25.1,51.5 L 25.6,52.8 L 26.1,53.9 L 26.5,54.8 L 27.0,55.3 L 27.5,55.4 L 28.0,55.1 L 28.5,54.3 L 29.0,53.0 L 29.5,51.1 L 29.9,48.8 L 30.4,46.1 L 30.9,43.0 L 31.4,39.6 L 31.9,36.1 L 32.4,32.6 L 32.8,29.2 L 33.3,25.9 L 33.8,23.0 L 34.3,20.5 L 34.8,18.6 L 35.3,17.3 L 35.8,16.6 L 36.2,16.6 L 36.7,17.3 L 37.2,18.6 L 37.7,20.5 L 38.2,23.0 L 38.7,25.9 L 39.2,29.2 L 39.6,32.6 L 40.1,36.1 L 40.6,39.6 L 41.1,43.0 L 41.6,46.1 L 42.1,48.8 L 42.5,51.1 L 43.0,53.0 L 43.5,54.3 L 44.0,55.1 L 44.5,55.4 L 45.0,55.3 L 45.5,54.8 L 45.9,53.9 L 46.4,52.8 L 46.9,51.5 L 47.4,50.2 L 47.9,48.8 L 48.4,47.6 L 48.8,46.4 L 49.3,45.5 L 49.8,44.9 L 50.3,44.5 L 50.8,44.4 L 51.3,44.5 L 51.8,44.9 L 52.2,45.5 L 52.7,46.2 L 53.2,47.1 L 53.7,47.9 L 54.2,48.8 L 54.7,49.6 L 55.2,50.3 L 55.6,50.8 L 56.1,51.2 L 56.6,51.4 L 57.1,51.4 L 57.6,51.2 L 58.1,50.8 L 58.5,50.4 L 59.0,49.8 L 59.5,49.1 L 60.0,48.5" 
        fill="none" 
        stroke="#d65d0e" 
        stroke-width="6" 
        stroke-linecap="round" 
        stroke-linejoin="round"/>
</svg>